<svg width="41" height="40" viewBox="0 0 41 40" fill="none" xmlns="http://www.w3.org/2000/svg">
<path d="M32.0859 8.29155C29.7709 5.97755 26.8216 4.40198 23.6112 3.7641C20.4007 3.12621 17.0732 3.45465 14.0494 4.70788C11.0255 5.96111 8.44125 8.08285 6.62328 10.8048C4.80531 13.5267 3.83529 16.7267 3.83591 19.9999C3.83591 24.39 5.5793 28.6004 8.68278 31.7054C11.7863 34.8105 15.9958 36.556 20.3859 36.5582C22.5583 36.5583 24.7098 36.1337 26.7192 35.3082C28.7219 34.4624 30.5437 33.2403 32.0859 31.7082C33.6236 30.1707 34.8434 28.3454 35.6757 26.3365C36.5079 24.3276 36.9362 22.1744 36.9362 19.9999C36.9362 17.8254 36.5079 15.6722 35.6757 13.6633C34.8434 11.6543 33.6236 9.82902 32.0859 8.29155ZM30.9192 30.5249C28.5361 32.9184 25.4089 34.4291 22.0526 34.8082V23.8749H25.1859C25.6279 23.8749 26.0519 23.6993 26.3644 23.3867C26.677 23.0742 26.8526 22.6502 26.8526 22.2082C26.8526 21.7662 26.677 21.3423 26.3644 21.0297C26.0519 20.7171 25.6279 20.5415 25.1859 20.5415H22.0526V15.9749C22.0526 15.5329 22.2282 15.1089 22.5407 14.7964C22.8533 14.4838 23.2772 14.3082 23.7192 14.3082H25.7192C26.1613 14.3082 26.5852 14.1326 26.8978 13.8201C27.2103 13.5075 27.3859 13.0836 27.3859 12.6416C27.3859 12.1995 27.2103 11.7756 26.8978 11.463C26.5852 11.1505 26.1613 10.9749 25.7192 10.9749H22.8859C21.7808 10.9749 20.721 11.4139 19.9396 12.1953C19.1582 12.9767 18.7192 14.0365 18.7192 15.1416V20.5415H15.6026C15.1605 20.5415 14.7366 20.7171 14.4241 21.0297C14.1115 21.3423 13.9359 21.7662 13.9359 22.2082C13.9359 22.6502 14.1115 23.0742 14.4241 23.3867C14.7366 23.6993 15.1605 23.8749 15.6026 23.8749H18.7192V34.8082C15.6241 34.4551 12.718 33.1385 10.4117 31.0443C8.10527 28.9502 6.5151 26.1844 5.86574 23.1375C5.21639 20.0907 5.54067 16.9169 6.79279 14.0643C8.04491 11.2118 10.1616 8.82469 12.8438 7.24025C15.5261 5.65582 18.6383 4.95411 21.7409 5.23425C24.8436 5.51439 27.7798 6.76221 30.1349 8.80146C32.4899 10.8407 34.1448 13.5683 34.8657 16.599C35.5866 19.6297 35.3372 22.8103 34.1526 25.6915C33.3966 27.4961 32.2987 29.1374 30.9192 30.5249Z" fill="#FDF7F2"/>
</svg>
