<svg width="40" height="40" viewBox="0 0 40 40" fill="none" xmlns="http://www.w3.org/2000/svg">
<path d="M6.66663 15H33.3333L31.9416 30.3017C31.8664 31.1299 31.4843 31.9 30.8703 32.4609C30.2563 33.0218 29.4549 33.333 28.6233 33.3333H11.3766C10.545 33.333 9.74357 33.0218 9.12962 32.4609C8.51567 31.9 8.13355 31.1299 8.05829 30.3017L6.66663 15Z" stroke="black" stroke-linejoin="round"/>
<path d="M13.3333 18.3333V13.3333C13.3333 11.5652 14.0356 9.86952 15.2859 8.61928C16.5361 7.36904 18.2318 6.66666 19.9999 6.66666C21.768 6.66666 23.4637 7.36904 24.714 8.61928C25.9642 9.86952 26.6666 11.5652 26.6666 13.3333V18.3333" stroke="black" stroke-linecap="round"/>
</svg>
