<svg width="41" height="40" viewBox="0 0 41 40" fill="none" xmlns="http://www.w3.org/2000/svg">
<path d="M32.1359 8.1831C30.6077 6.63994 28.7876 5.41637 26.7818 4.5837C24.7759 3.75103 22.6244 3.3259 20.4526 3.3331C11.3526 3.3331 3.93592 10.7498 3.93592 19.8498C3.93592 22.7664 4.70258 25.5998 6.13592 28.0998L3.80258 36.6664L12.5526 34.3664C14.9692 35.6831 17.6859 36.3831 20.4526 36.3831C29.5526 36.3831 36.9692 28.9664 36.9692 19.8664C36.9692 15.4498 35.2526 11.2998 32.1359 8.1831ZM20.4526 33.5831C17.9859 33.5831 15.5692 32.9164 13.4526 31.6664L12.9526 31.3664L7.75258 32.7331L9.13592 27.6664L8.80258 27.1498C7.43183 24.9615 6.70412 22.4319 6.70258 19.8498C6.70258 12.2831 12.8692 6.11643 20.4359 6.11643C24.1026 6.11643 27.5526 7.54976 30.1359 10.1498C31.4153 11.4229 32.4291 12.9373 33.1186 14.6053C33.8081 16.2733 34.1596 18.0616 34.1526 19.8664C34.1859 27.4331 28.0192 33.5831 20.4526 33.5831ZM27.9859 23.3164C27.5692 23.1164 25.5359 22.1164 25.1692 21.9664C24.7859 21.8331 24.5192 21.7664 24.2359 22.1664C23.9526 22.5831 23.1692 23.5164 22.9359 23.7831C22.7026 24.0664 22.4526 24.0998 22.0359 23.8831C21.6192 23.6831 20.2859 23.2331 18.7192 21.8331C17.4859 20.7331 16.6692 19.3831 16.4192 18.9664C16.1859 18.5498 16.3859 18.3331 16.6026 18.1164C16.7859 17.9331 17.0192 17.6331 17.2192 17.3998C17.4192 17.1664 17.5026 16.9831 17.6359 16.7164C17.7692 16.4331 17.7026 16.1998 17.6026 15.9998C17.5026 15.7998 16.6692 13.7664 16.3359 12.9331C16.0026 12.1331 15.6526 12.2331 15.4026 12.2164H14.6026C14.3192 12.2164 13.8859 12.3164 13.5026 12.7331C13.1359 13.1498 12.0692 14.1498 12.0692 16.1831C12.0692 18.2164 13.5526 20.1831 13.7526 20.4498C13.9526 20.7331 16.6692 24.8998 20.8026 26.6831C21.7859 27.1164 22.5526 27.3664 23.1526 27.5498C24.1359 27.8664 25.0359 27.8164 25.7526 27.7164C26.5526 27.5998 28.2026 26.7164 28.5359 25.7498C28.8859 24.7831 28.8859 23.9664 28.7692 23.7831C28.6526 23.5998 28.4026 23.5164 27.9859 23.3164Z" fill="#FDF7F2"/>
</svg>
