<svg width="41" height="40" viewBox="0 0 41 40" fill="none" xmlns="http://www.w3.org/2000/svg">
<path d="M31.1142 34.895H9.65757C8.5525 34.895 7.4927 34.456 6.71129 33.6746C5.92989 32.8932 5.49091 31.8334 5.49091 30.7283V9.27165C5.49091 8.16658 5.92989 7.10677 6.71129 6.32537C7.4927 5.54397 8.5525 5.10498 9.65757 5.10498H31.1142C32.2193 5.10498 33.2791 5.54397 34.0605 6.32537C34.8419 7.10677 35.2809 8.16658 35.2809 9.27165V30.7283C35.2809 31.8334 34.8419 32.8932 34.0605 33.6746C33.2791 34.456 32.2193 34.895 31.1142 34.895ZM9.65757 6.77165C8.99453 6.77165 8.35865 7.03504 7.88981 7.50388C7.42096 7.97272 7.15757 8.60861 7.15757 9.27165V30.7283C7.15757 31.3914 7.42096 32.0272 7.88981 32.4961C8.35865 32.9649 8.99453 33.2283 9.65757 33.2283H31.1142C31.7773 33.2283 32.4132 32.9649 32.882 32.4961C33.3508 32.0272 33.6142 31.3914 33.6142 30.7283V9.27165C33.6142 8.60861 33.3508 7.97272 32.882 7.50388C32.4132 7.03504 31.7773 6.77165 31.1142 6.77165H9.65757Z" fill="#FDF7F2"/>
<path d="M20.3859 27.6565C18.8715 27.6549 17.3916 27.2043 16.1333 26.3617C14.8749 25.5191 13.8946 24.3224 13.3163 22.9227C12.738 21.5231 12.5876 19.9835 12.8842 18.4984C13.1808 17.0133 13.911 15.6495 14.9825 14.5794C16.054 13.5093 17.4188 12.7808 18.9043 12.4862C20.3897 12.1916 21.9292 12.3439 23.328 12.9241C24.7269 13.5042 25.9224 14.4861 26.7633 15.7455C27.6042 17.005 28.0529 18.4855 28.0526 19.9998C28.0499 22.0314 27.241 23.9789 25.8035 25.4145C24.366 26.8501 22.4175 27.6565 20.3859 27.6565ZM20.3859 13.9998C19.2016 14.0015 18.0443 14.3541 17.0603 15.0131C16.0762 15.6721 15.3095 16.608 14.8571 17.7024C14.4046 18.7969 14.2867 20.001 14.5181 21.1625C14.7496 22.324 15.32 23.3908 16.1575 24.2283C16.9949 25.0657 18.0618 25.6362 19.2233 25.8676C20.3848 26.0991 21.5888 25.9811 22.6833 25.5287C23.7778 25.0762 24.7136 24.3095 25.3727 23.3255C26.0317 22.3414 26.3843 21.1842 26.3859 19.9998C26.3859 18.4085 25.7538 16.8824 24.6285 15.7572C23.5033 14.632 21.9772 13.9998 20.3859 13.9998Z" fill="#FDF7F2"/>
<path d="M29.0526 13.1751C30.0421 13.1751 30.8442 12.373 30.8442 11.3835C30.8442 10.394 30.0421 9.5918 29.0526 9.5918C28.0631 9.5918 27.2609 10.394 27.2609 11.3835C27.2609 12.373 28.0631 13.1751 29.0526 13.1751Z" fill="#FDF7F2"/>
</svg>
